<svg xmlns="http://www.w3.org/2000/svg" version="1.1" xmlns:xlink="http://www.w3.org/1999/xlink" xmlns:svgjs="http://svgjs.dev/svgjs" width="1000" height="623" viewBox="0 0 1000 623"><g transform="matrix(1,0,0,1,-0.6060606060606233,0.2522267206477409)"><svg viewBox="0 0 396 247" data-background-color="#bb84e8" preserveAspectRatio="xMidYMid meet" height="623" width="1000" xmlns="http://www.w3.org/2000/svg" xmlns:xlink="http://www.w3.org/1999/xlink"><g id="tight-bounds" transform="matrix(1,0,0,1,0.2400000000000091,-0.09999999999999432)"><svg viewBox="0 0 395.52 247.2" height="247.2" width="395.52"><g><svg></svg></g><g><svg viewBox="0 0 395.52 247.2" height="247.2" width="395.52"><g transform="matrix(1,0,0,1,89.08377167381971,47.215199999999996)"><svg viewBox="0 0 217.35245665236056 152.7696" height="152.7696" width="217.35245665236056"><g><svg viewBox="0 0 217.35245665236056 152.7696" height="152.7696" width="217.35245665236056"><g><svg viewBox="0 0 217.35245665236056 152.7696" height="152.7696" width="217.35245665236056"><g><svg viewBox="0 0 217.35245665236056 152.7696" height="152.7696" width="217.35245665236056"><g id="textblocktransform"><svg viewBox="0 0 217.35245665236056 152.7696" height="152.7696" width="217.35245665236056" id="textblock"><g><svg viewBox="0 0 217.35245665236056 152.7696" height="152.7696" width="217.35245665236056"><g transform="matrix(1,0,0,1,0,0)"><svg width="217.35245665236056" viewBox="1.5 -36.95 68.99 46.6" height="152.7696" data-palette-color="#8d00ff"><path d="M10.9 0.5L10.9 0.5Q8.4 0.5 6.6-0.25 4.8-1 3.68-2.85 2.55-4.7 2.02-8.08 1.5-11.45 1.5-16.7L1.5-16.7Q1.5-22.6 2.25-26.28 3-29.95 4.4-31.98 5.8-34 7.78-34.75 9.75-35.5 12.25-35.5L12.25-35.5Q14.7-35.5 16.13-34.73 17.55-33.95 17.55-32.95L17.55-32.95Q17.55-32.25 17.4-31.58 17.25-30.9 17.05-30.3L17.05-30.3Q16.4-30.85 15.35-31.18 14.3-31.5 13.05-31.5L13.05-31.5Q11.15-31.5 9.78-30.8 8.4-30.1 7.53-28.45 6.65-26.8 6.25-24 5.85-21.2 5.85-17L5.85-17Q5.85-12.55 6.18-9.85 6.5-7.15 7.18-5.78 7.85-4.4 8.83-3.95 9.8-3.5 11-3.5L11-3.5Q11.9-3.5 12.5-3.7 13.1-3.9 13.48-4.2 13.85-4.5 13.95-4.7L13.95-4.7 13.95-17.15 10.25-17.15 10.25-19.7Q10.25-20.55 11.2-20.55L11.2-20.55 17.75-20.55 17.75-1.75Q17.15-1.25 16.23-0.73 15.3-0.2 13.98 0.15 12.65 0.5 10.9 0.5ZM21.55 0L21.55 0 21.55-23.15Q21.55-24.1 21.9-24.48 22.25-24.85 23.15-24.93 24.05-25 25.7-25L25.7-25 25.7-0.8Q25.7-0.4 25.52-0.25 25.35-0.1 24.5-0.05 23.65 0 21.55 0ZM23.5-28.45L23.5-28.45Q22.55-28.5 22-29.18 21.45-29.85 21.45-31.6L21.45-31.6Q21.5-32.95 22.05-33.77 22.6-34.6 23.8-34.6L23.8-34.6Q24.95-34.6 25.4-33.95 25.85-33.3 25.8-31.7L25.8-31.7Q25.8-30.2 25.22-29.33 24.65-28.45 23.5-28.45ZM35.3 0L32.04 0 32.04-21.55 28.59-21.55Q28.59-23.2 28.64-23.9 28.69-24.6 28.92-24.8 29.14-25 29.64-25L29.64-25 32.04-25 32.04-28.05Q32.04-30.95 32.82-32.7 33.59-34.45 34.84-35.38 36.09-36.3 37.57-36.63 39.05-36.95 40.45-36.95L40.45-36.95Q42.74-36.95 43.92-36.4 45.09-35.85 45.09-34.9L45.09-34.9Q45.09-34.4 44.97-33.8 44.84-33.2 44.64-32.65L44.64-32.65Q43.74-33.05 42.84-33.15 41.95-33.25 41.09-33.25L41.09-33.25Q40.09-33.25 39.22-33.1 38.34-32.95 37.62-32.43 36.89-31.9 36.49-30.95 36.09-30 36.09-28.35L36.09-28.35 36.09-25 40.59-25Q40.59-23.4 40.55-22.68 40.49-21.95 40.32-21.75 40.14-21.55 39.74-21.55L39.74-21.55 36.09-21.55 36.09-0.8Q36.09-0.75 35.97-0.38 35.84 0 35.3 0L35.3 0ZM48.04 0L44.79 0 44.79-21.55 41.34-21.55Q41.34-23.2 41.39-23.9 41.44-24.6 41.67-24.8 41.89-25 42.39-25L42.39-25 44.79-25 44.79-28.05Q44.79-30.95 45.57-32.7 46.34-34.45 47.59-35.38 48.84-36.3 50.32-36.63 51.79-36.95 53.19-36.95L53.19-36.95Q55.49-36.95 56.67-36.4 57.84-35.85 57.84-34.9L57.84-34.9Q57.84-34.4 57.72-33.8 57.59-33.2 57.39-32.65L57.39-32.65Q56.49-33.05 55.59-33.15 54.69-33.25 53.84-33.25L53.84-33.25Q52.84-33.25 51.97-33.1 51.09-32.95 50.37-32.43 49.64-31.9 49.24-30.95 48.84-30 48.84-28.35L48.84-28.35 48.84-25 53.34-25Q53.34-23.4 53.29-22.68 53.24-21.95 53.07-21.75 52.89-21.55 52.49-21.55L52.49-21.55 48.84-21.55 48.84-0.8Q48.84-0.75 48.72-0.38 48.59 0 48.04 0L48.04 0ZM57.34 9.65L57.34 9.65Q55.14 9.65 54.22 9.1 53.29 8.55 53.29 7.7L53.29 7.7Q53.29 7.1 53.44 6.45 53.59 5.8 53.89 5.4L53.89 5.4Q54.39 5.75 55.29 5.98 56.19 6.2 57.04 6.2L57.04 6.2Q58.24 6.2 59.19 5.05 60.14 3.9 60.69 0.8L60.69 0.8 54.69-23.9Q54.54-24.45 54.66-24.68 54.79-24.9 55.66-24.95 56.54-25 58.64-25L58.64-25 61.34-13.05Q61.64-11.55 61.89-10 62.14-8.45 62.29-7.13 62.44-5.8 62.57-5 62.69-4.2 62.69-4.2L62.69-4.2Q62.69-4.2 62.77-5 62.84-5.8 63.02-7.13 63.19-8.45 63.42-10.03 63.64-11.6 63.89-13.1L63.89-13.1 66.14-23.8Q66.24-24.45 66.44-24.68 66.64-24.9 67.54-24.95 68.44-25 70.49-25L70.49-25 64.34 1.35Q63.59 4.5 62.67 6.33 61.74 8.15 60.47 8.9 59.19 9.65 57.34 9.65Z" opacity="1" transform="matrix(1,0,0,1,0,0)" fill="#8d00ff" class="undefined-text-0" data-fill-palette-color="primary" id="text-0"></path></svg></g></svg></g></svg></g></svg></g></svg></g></svg></g></svg></g><path d="M124.135 41.215L124.135 0 371.335 0 371.335 247.2 124.135 247.2 124.135 205.985 137.912 205.985 137.912 233.423 357.558 233.423 357.558 13.777 137.912 13.777 137.912 41.215Z" fill="#8d00ff" stroke="transparent" data-fill-palette-color="primary"></path></svg></g><defs></defs></svg><rect width="395.52" height="247.2" fill="none" stroke="none" visibility="hidden"></rect></g></svg></g></svg>